<svg width="128" height="128" xmlns="http://www.w3.org/2000/svg"><g fill="none" fill-rule="evenodd"><path fill="#0061D5" d="M0 0h128v128H0z"/><g fill="#FFF" fill-rule="nonzero"><path d="M96.798 70.47l8.24-10.102a3.03 3.03 0 0 0-.439-4.253l-.328-.268a3.045 3.045 0 0 0-4.263.437l-7.389 9.062-7.39-9.062a3.045 3.045 0 0 0-4.262-.437l-.325.265a3.03 3.03 0 0 0-.438 4.253l8.236 10.106-8.24 10.102a3.03 3.03 0 0 0 .439 4.257l.326.264a3.045 3.045 0 0 0 4.262-.437l7.39-9.062 7.389 9.062a3.045 3.045 0 0 0 4.265.437l.325-.264a3.03 3.03 0 0 0 .439-4.254l-8.237-10.105z"/><path d="M65.837 55.174a15.377 15.377 0 0 0-13.611 8.208 15.449 15.449 0 0 0-10.255-7.829 15.479 15.479 0 0 0-12.63 2.672V45.218c0-1.662-1.295-3.218-2.963-3.218h-.11c-1.666 0-2.98 1.556-2.98 3.218v24.335a3.068 3.068 0 0 0 0 .314c0 .215-.029.434-.029.652.002 7.053 4.823 13.195 11.684 14.886 6.861 1.691 13.993-1.505 17.286-7.745 3.51 6.656 11.337 9.793 18.485 7.406 7.148-2.386 11.508-9.59 10.297-17.014-1.211-7.424-7.636-12.877-15.174-12.878zm-27.185 24.53c-5.093 0-9.222-4.12-9.222-9.202s4.129-9.202 9.222-9.202 9.222 4.12 9.222 9.202c0 2.44-.972 4.782-2.701 6.507a9.232 9.232 0 0 1-6.521 2.696zm27.223 0c-5.094 0-9.223-4.12-9.223-9.202s4.13-9.202 9.223-9.202c5.093 0 9.222 4.12 9.222 9.202 0 2.44-.972 4.782-2.701 6.507a9.232 9.232 0 0 1-6.521 2.696z"/></g></g></svg>