<svg width="128" height="128" xmlns="http://www.w3.org/2000/svg"><g fill="none" fill-rule="evenodd"><path fill="#F47621" d="M0 0h128v128H0z"/><path d="M82.985 51.736v-9.804c3.049-1.191 4.665-3.859 4.665-6.962a7.57 7.57 0 0 0-2.186-5.386 7.546 7.546 0 0 0-5.356-2.242c-4.207 0-7.76 3.414-7.76 7.628a7.685 7.685 0 0 0 4.262 6.906v9.827a24.963 24.963 0 0 0-6.651 2.174L43.352 33.593c.227-.744.35-1.515.366-2.293a8.361 8.361 0 0 0-6.266-8.035 8.345 8.345 0 0 0-9.363 4 8.374 8.374 0 0 0 1.451 10.09 8.34 8.34 0 0 0 10.11 1.19l25.76 18.68c-7.886 7.264-8.744 19.43-1.956 27.734l-7.957 7.97a6.671 6.671 0 0 0-7.923 2.608 6.695 6.695 0 0 0 .8 8.315 6.669 6.669 0 0 0 8.274 1.046 6.692 6.692 0 0 0 2.837-7.856l8.157-8.17a21.373 21.373 0 0 0 12.372 3.912C91.688 92.784 101 83.54 101 72.139c0-10.32-7.76-18.868-18.015-20.403zm-2.896 31.588c-6.135 0-11.109-4.982-11.109-11.126 0-6.145 4.974-11.126 11.109-11.126s11.108 4.981 11.108 11.126c0 6.144-4.973 11.126-11.108 11.126z" fill="#FFF" fill-rule="nonzero"/></g></svg>