<svg width="128" height="128" xmlns="http://www.w3.org/2000/svg"><defs><linearGradient x1="98.031%" y1=".74%" x2="58.888%" y2="40.873%" id="a"><stop stop-color="#FFF" stop-opacity=".4" offset="18%"/><stop stop-color="#FFF" offset="100%"/></linearGradient><linearGradient x1="98.031%" y1=".747%" x2="58.888%" y2="40.875%" id="b"><stop stop-color="#FFF" stop-opacity=".4" offset="18%"/><stop stop-color="#FFF" offset="100%"/></linearGradient></defs><g fill="none" fill-rule="evenodd"><path fill="#0052CC" d="M0 0h128v128H0z"/><g fill-rule="nonzero"><path d="M101.885 22.5h-39.33a17.748 17.748 0 0 0 17.75 17.748h7.241v6.992c.005 9.798 7.95 17.739 17.748 17.739V25.912a3.41 3.41 0 0 0-3.409-3.412z" fill="#FFF"/><path d="M59.35 20.158H20.035c.005 9.794 7.943 17.732 17.737 17.739h7.24v6.992a17.748 17.748 0 0 0 17.751 17.747V23.57a3.413 3.413 0 0 0-3.411-3.411z" fill="url(#a)" transform="translate(22.5 22.5)"/><path d="M39.316 40.318H0c.006 9.797 7.95 17.736 17.748 17.736h7.266v6.992c-.001 9.79 7.925 17.73 17.714 17.748V43.727a3.41 3.41 0 0 0-3.412-3.409z" fill="url(#b)" transform="translate(22.5 22.5)"/></g></g></svg>