<svg width="128" height="128" xmlns="http://www.w3.org/2000/svg"><g fill="none" fill-rule="evenodd"><path fill="#8D71C8" d="M0 0h128v128H0z"/><path d="M32.695 79.643c2.109 0 4.203.053 6.292.135l1.646-6.702c.401-1.787-.178-3.763-2.526-3.763h-8.713c-1.857 0-3.935 1.214-4.632 3.84l-1.626 6.888c3.161-.18 6.357-.398 9.559-.398zm25.221 2.013l4.39-18.35c.401-1.79-.177-3.877-2.526-3.877h-8.712c-1.858.003-3.936 1.333-4.636 3.955l-3.868 16.629c5.19.31 10.31.832 15.352 1.643zm17.925 3.95l7.292-30.931c.395-1.793-.184-3.148-2.541-4.277h-8.704c-1.857 0-3.935 1.728-4.633 4.353l-6.29 27.266c5.045.918 10.008 2.21 14.876 3.588zm17.737 6.196l12.17-51.52c.402-1.792-.177-3.153-2.526-4.282h-8.715c-1.858 1.13-3.935 1.733-4.633 4.359L79.22 86.46c4.89 1.504 9.675 3.387 14.358 5.341z" fill="#FFF" fill-rule="nonzero"/></g></svg>