<svg width="128" height="128" xmlns="http://www.w3.org/2000/svg"><g fill="none" fill-rule="evenodd"><path fill="#183B4B" d="M0 0h128v128H0z"/><path d="M56.947 41.413c2.675-2.753 6.384-4.477 10.489-4.477 5.472 0 10.215 3.025 12.769 7.532a17.971 17.971 0 0 1 7.205-1.513c9.85 0 17.847 8.016 17.847 17.908 0 9.891-7.996 17.907-17.847 17.907-1.216 0-2.371-.12-3.526-.363a13.055 13.055 0 0 1-11.371 6.655 13.43 13.43 0 0 1-5.716-1.3c-2.28 5.293-7.54 9.014-13.681 9.014a14.856 14.856 0 0 1-13.955-9.68c-.912.181-1.855.302-2.828.302-7.63 0-13.803-6.23-13.803-13.884 0-5.142 2.767-9.62 6.902-12.039-.851-1.936-1.307-4.084-1.307-6.352 0-8.833 7.205-15.972 16.083-15.972 5.168 0 9.79 2.45 12.739 6.262z" fill="#00A1E0" fill-rule="nonzero"/><g fill="#FFF"><path d="M34.479 65.037c-.061.121.03.151.03.182.152.12.304.181.487.272.85.454 1.641.575 2.462.575 1.703 0 2.767-.908 2.767-2.33v-.03c0-1.33-1.186-1.815-2.31-2.178l-.153-.06c-.851-.272-1.58-.514-1.58-1.059v-.03c0-.484.425-.817 1.094-.817.73 0 1.611.242 2.158.545 0 0 .152.09.213-.06.03-.092.304-.848.335-.939.03-.09-.03-.15-.092-.181-.638-.393-1.52-.635-2.432-.635h-.182c-1.55 0-2.645.937-2.645 2.268v.03c0 1.422 1.185 1.876 2.31 2.179l.183.06c.82.242 1.52.454 1.52 1.029v.03c0 .514-.456.907-1.186.907-.273 0-1.185 0-2.189-.635-.121-.06-.182-.121-.273-.181-.061-.03-.183-.091-.213.09l-.304.968zm24.869 0c-.06.121.03.151.03.182.153.12.305.181.487.272.851.454 1.642.575 2.463.575 1.702 0 2.767-.908 2.767-2.33v-.03c0-1.33-1.186-1.815-2.311-2.178l-.152-.06c-.851-.272-1.581-.514-1.581-1.059v-.03c0-.484.426-.817 1.094-.817.73 0 1.612.242 2.159.545 0 0 .152.09.213-.06.03-.092.304-.848.334-.939.03-.09-.03-.15-.09-.181-.64-.393-1.521-.635-2.433-.635h-.183c-1.55 0-2.645.937-2.645 2.268v.03c0 1.422 1.186 1.876 2.311 2.179l.182.06c.821.242 1.52.454 1.52 1.029v.03c0 .514-.455.907-1.185.907-.274 0-1.186 0-2.19-.635-.12-.06-.182-.121-.273-.181-.03-.03-.182-.061-.213.09l-.304.968zm18.364-4.356c-.152-.453-.365-.877-.639-1.21-.304-.332-.669-.635-1.094-.816-.426-.212-.943-.303-1.52-.303-.578 0-1.095.091-1.52.303a3.69 3.69 0 0 0-1.095.816 3.302 3.302 0 0 0-.639 1.21c-.152.454-.212.968-.212 1.513 0 .544.06 1.059.212 1.512.153.454.365.878.639 1.21.304.333.669.635 1.094.817.426.181.943.302 1.52.302.578 0 1.095-.09 1.52-.302.426-.182.791-.484 1.095-.817.274-.332.517-.756.639-1.21.152-.453.213-.968.213-1.512 0-.545-.061-1.059-.213-1.513m-1.399 1.513c0 .817-.152 1.452-.456 1.906-.304.453-.76.665-1.368.665-.638 0-1.064-.212-1.368-.665-.304-.454-.456-1.09-.456-1.906 0-.817.152-1.452.456-1.906.304-.454.73-.665 1.368-.665.638 0 1.095.211 1.368.665.304.454.456 1.09.456 1.906" fill-rule="nonzero"/><path d="M89.356 64.553c-.06-.151-.182-.09-.182-.09a2.48 2.48 0 0 1-.67.181c-.242.03-.486.06-.79.06-.699 0-1.216-.211-1.611-.604-.395-.394-.608-1.06-.608-1.936 0-.787.182-1.392.547-1.846.335-.453.882-.695 1.581-.695.578 0 1.034.06 1.49.211 0 0 .121.06.152-.09.121-.333.213-.575.334-.968.03-.121-.06-.152-.09-.152a8.248 8.248 0 0 0-.943-.242c-.304-.06-.67-.06-1.065-.06-.608 0-1.124.09-1.58.302a3.609 3.609 0 0 0-1.156.817 3.423 3.423 0 0 0-.7 1.21 4.781 4.781 0 0 0-.242 1.513c0 1.18.304 2.117.942 2.813.639.695 1.581 1.058 2.797 1.058.73 0 1.46-.15 2.007-.363 0 0 .091-.06.06-.181l-.273-.938zm7.236-4.143c-.122-.455-.426-.908-.608-1.12-.304-.333-.608-.575-.912-.696-.395-.181-.851-.272-1.368-.272-.608 0-1.156.09-1.581.302-.456.212-.821.484-1.095.847a3.021 3.021 0 0 0-.638 1.24 4.92 4.92 0 0 0-.213 1.513c0 .545.06 1.059.213 1.513.152.453.365.877.699 1.21.304.332.73.604 1.216.786.487.181 1.064.272 1.733.272 1.399 0 2.128-.302 2.402-.484.06-.03.091-.09.03-.242l-.304-.877c-.06-.121-.182-.09-.182-.09-.335.12-.821.362-1.976.362-.73 0-1.308-.211-1.642-.574-.365-.363-.517-.878-.547-1.573h4.803s.122 0 .152-.121c-.03 0 .122-.908-.182-1.997zm-4.773.997c.06-.453.182-.816.395-1.119.304-.454.73-.696 1.368-.696.639 0 1.034.242 1.338.696.213.303.273.696.304 1.12h-3.405zm-33.626-.997c-.122-.455-.426-.908-.608-1.12-.304-.333-.608-.575-.912-.696-.395-.181-.851-.272-1.368-.272-.608 0-1.156.09-1.581.302-.456.212-.821.484-1.095.847a3.021 3.021 0 0 0-.638 1.24 4.92 4.92 0 0 0-.213 1.513c0 .545.06 1.059.213 1.513.152.453.365.877.7 1.21.303.332.729.604 1.215.786.487.181 1.064.272 1.733.272 1.399 0 2.128-.302 2.402-.484.06-.03.091-.09.03-.242l-.304-.877c-.06-.121-.182-.09-.182-.09-.334.12-.82.362-1.976.362-.73 0-1.308-.211-1.642-.574-.365-.363-.517-.878-.547-1.573h4.803s.122 0 .152-.121c-.03 0 .122-.908-.182-1.997zm-4.773.997c.06-.453.182-.816.395-1.119.304-.454.73-.696 1.368-.696.639 0 1.034.242 1.338.696.182.303.274.696.304 1.12H53.42z"/><path d="M44.968 61.165c-.183 0-.456-.03-.76-.03-.426 0-.821.06-1.186.151s-.7.242-1.003.454c-.304.212-.517.484-.7.787-.182.302-.243.695-.243 1.089 0 .423.061.786.213 1.089.152.302.365.544.638.756.274.181.609.332.973.423.365.091.79.121 1.277.121.487 0 .973-.03 1.46-.12.456-.092 1.033-.182 1.216-.243.152-.03.334-.09.334-.09.122-.03.122-.152.122-.152v-4.356c0-.968-.243-1.663-.76-2.117-.517-.424-1.247-.666-2.19-.666-.364 0-.942.061-1.276.121 0 0-1.034.212-1.49.545 0 0-.091.06-.03.181l.334.908c.03.12.152.09.152.09s.03 0 .091-.03c.912-.484 2.098-.484 2.098-.484.517 0 .912.091 1.186.303.273.212.395.514.395 1.15v.211a9.308 9.308 0 0 1-.851-.09zm-1.916 3.358c-.182-.151-.212-.181-.273-.272a1.224 1.224 0 0 1-.152-.635c0-.424.152-.726.425-.938 0 0 .426-.363 1.399-.333.7 0 1.307.121 1.307.121v2.178s-.608.121-1.307.182c-.973.03-1.399-.303-1.399-.303z" fill-rule="nonzero"/><path d="M83.64 58.715c.03-.12-.03-.151-.06-.181a3.317 3.317 0 0 0-.791-.121c-.608-.03-.942.06-1.247.211-.304.121-.638.363-.82.605v-.574c0-.091-.061-.152-.152-.152h-1.217a.144.144 0 0 0-.152.152v7.108c0 .091.061.151.152.151H80.6c.091 0 .152-.06.152-.15v-3.57c0-.484.06-.968.152-1.24.091-.303.243-.545.426-.696.182-.182.365-.303.577-.363.213-.06.456-.09.639-.09.243 0 .517.06.517.06.09 0 .152-.06.182-.121.122-.242.365-.908.395-1.029zm-11.826-3.297a2.287 2.287 0 0 0-.487-.12 3.814 3.814 0 0 0-.638-.061c-.882 0-1.55.242-2.037.726-.487.484-.79 1.21-.973 2.177l-.061.333h-1.095s-.121 0-.152.151l-.182.999c0 .09.03.15.152.15h1.064l-1.064 5.96a11.54 11.54 0 0 1-.274 1.18 1.934 1.934 0 0 1-.334.665c-.122.151-.243.272-.426.333-.152.06-.365.09-.577.09-.122 0-.274-.03-.396-.03-.121-.03-.182-.06-.273-.09 0 0-.122-.06-.183.09-.03.091-.334.878-.364.968-.03.091 0 .182.06.182.152.06.244.09.426.12.274.061.486.061.7.061.455 0 .85-.06 1.185-.181.334-.121.638-.333.882-.605.273-.303.456-.635.608-1.059.152-.423.304-.968.425-1.603l1.095-6.08h1.58s.122 0 .153-.151l.182-.999c0-.09-.03-.15-.152-.15h-1.52c0-.031.091-.576.243-1.09.061-.211.213-.393.335-.514.121-.121.243-.212.395-.242.152-.06.334-.06.517-.06.152 0 .273.03.395.03.152.03.213.06.243.06.152.06.183 0 .213-.06l.365-.998c.091-.121 0-.152-.03-.182zM50.38 65.733c0 .09-.061.151-.153.151h-1.276c-.092 0-.152-.06-.152-.151V55.569c0-.09.06-.15.152-.15h1.276c.092 0 .152.06.152.15v10.164z"/></g></g></svg>